M48
; DRILL file {KiCad 7.0.1} date Mon 24 Apr 2023 02:47:11 AM EDT
; FORMAT={-:-/ absolute / metric / decimal}
; #@! TF.CreationDate,2023-04-24T02:47:11-04:00
; #@! TF.GenerationSoftware,Kicad,Pcbnew,7.0.1
; #@! TF.FileFunction,NonPlated,1,2,NPTH
FMAT,2
METRIC
; #@! TA.AperFunction,NonPlated,NPTH,ComponentDrill
T1C1.500
; #@! TA.AperFunction,NonPlated,NPTH,ComponentDrill
T2C1.702
; #@! TA.AperFunction,NonPlated,NPTH,ComponentDrill
T3C3.988
%
G90
G05
T1
X148.59Y-116.84
X148.59Y-135.89
X148.59Y-154.94
X149.86Y-119.38
X149.86Y-138.43
X149.86Y-157.48
X154.94Y-119.38
X154.94Y-138.43
X154.94Y-157.48
X156.21Y-116.84
X156.21Y-135.89
X156.21Y-154.94
X167.59Y-116.84
X167.59Y-135.89
X167.59Y-154.94
X168.86Y-119.38
X168.86Y-138.43
X168.86Y-157.48
X173.94Y-119.38
X173.94Y-138.43
X173.94Y-157.48
X175.21Y-116.84
X175.21Y-135.89
X175.21Y-154.94
X186.59Y-116.84
X186.59Y-135.89
X186.59Y-154.94
X187.86Y-119.38
X187.86Y-138.43
X187.86Y-157.48
X191.34Y-176.365
X192.61Y-178.905
X192.94Y-119.38
X192.94Y-138.43
X192.94Y-157.48
X194.21Y-116.84
X194.21Y-135.89
X194.21Y-154.94
X197.69Y-178.905
X198.96Y-176.365
X205.59Y-116.84
X205.59Y-135.89
X205.59Y-154.94
X206.86Y-119.38
X206.86Y-138.43
X206.86Y-157.48
X210.34Y-176.365
X211.61Y-178.905
X211.94Y-119.38
X211.94Y-138.43
X211.94Y-157.48
X213.21Y-116.84
X213.21Y-135.89
X213.21Y-154.94
X216.69Y-178.905
X217.96Y-176.365
X224.59Y-116.84
X224.59Y-135.89
X224.59Y-154.94
X225.86Y-119.38
X225.86Y-138.43
X225.86Y-157.48
X229.34Y-176.365
X230.61Y-178.905
X230.94Y-119.38
X230.94Y-138.43
X230.94Y-157.48
X232.21Y-116.84
X232.21Y-135.89
X232.21Y-154.94
X235.69Y-178.905
X236.96Y-176.365
T2
X147.32Y-114.3
X147.32Y-133.35
X147.32Y-152.4
X157.48Y-114.3
X157.48Y-133.35
X157.48Y-152.4
X166.32Y-114.3
X166.32Y-133.35
X166.32Y-152.4
X176.48Y-114.3
X176.48Y-133.35
X176.48Y-152.4
X185.32Y-114.3
X185.32Y-133.35
X185.32Y-152.4
X190.07Y-173.825
X195.48Y-114.3
X195.48Y-133.35
X195.48Y-152.4
X200.23Y-173.825
X204.32Y-114.3
X204.32Y-133.35
X204.32Y-152.4
X209.07Y-173.825
X214.48Y-114.3
X214.48Y-133.35
X214.48Y-152.4
X219.23Y-173.825
X223.32Y-114.3
X223.32Y-133.35
X223.32Y-152.4
X228.07Y-173.825
X233.48Y-114.3
X233.48Y-133.35
X233.48Y-152.4
X238.23Y-173.825
T3
X152.4Y-114.3
X152.4Y-133.35
X152.4Y-152.4
X171.4Y-114.3
X171.4Y-133.35
X171.4Y-152.4
X190.4Y-114.3
X190.4Y-133.35
X190.4Y-152.4
X195.15Y-173.825
X209.4Y-114.3
X209.4Y-133.35
X209.4Y-152.4
X214.15Y-173.825
X228.4Y-114.3
X228.4Y-133.35
X228.4Y-152.4
X233.15Y-173.825
T0
M30
