M48
; DRILL file {KiCad 7.0.1} date Mon 24 Apr 2023 02:47:11 AM EDT
; FORMAT={-:-/ absolute / metric / decimal}
; #@! TF.CreationDate,2023-04-24T02:47:11-04:00
; #@! TF.GenerationSoftware,Kicad,Pcbnew,7.0.1
; #@! TF.FileFunction,Plated,1,2,PTH
FMAT,2
METRIC
; #@! TA.AperFunction,Plated,PTH,ViaDrill
T1C0.400
; #@! TA.AperFunction,Plated,PTH,ComponentDrill
T2C0.400
; #@! TA.AperFunction,Plated,PTH,ComponentDrill
T3C1.000
; #@! TA.AperFunction,Plated,PTH,ComponentDrill
T4C1.499
; #@! TA.AperFunction,Plated,PTH,ComponentDrill
T5C2.200
%
G90
G05
T1
X225.908Y-100.686
X230.0Y-97.55
X231.275Y-99.075
X233.175Y-103.9
X235.075Y-99.075
X236.35Y-97.55
X240.386Y-100.609
T2
X160.225Y-123.825
X160.225Y-142.875
X160.708Y-122.658
X160.708Y-124.992
X160.708Y-141.708
X160.708Y-144.042
X161.875Y-122.175
X161.875Y-125.475
X161.875Y-141.225
X161.875Y-144.525
X163.042Y-122.658
X163.042Y-124.992
X163.042Y-141.708
X163.042Y-144.042
X163.525Y-123.825
X163.525Y-142.875
X217.275Y-123.825
X217.275Y-142.875
X217.758Y-122.658
X217.758Y-124.992
X217.758Y-141.708
X217.758Y-144.042
X218.925Y-122.175
X218.925Y-125.475
X218.925Y-141.225
X218.925Y-144.525
X220.092Y-122.658
X220.092Y-124.992
X220.092Y-141.708
X220.092Y-144.042
X220.575Y-123.825
X220.575Y-142.875
T3
X201.145Y-85.442
X201.145Y-100.682
X203.685Y-85.442
X203.685Y-100.682
X206.225Y-85.442
X206.225Y-100.682
X208.765Y-85.442
X208.765Y-100.682
X211.305Y-85.442
X211.305Y-100.682
X213.845Y-85.442
X213.845Y-100.682
X216.385Y-85.442
X216.385Y-100.682
X218.925Y-85.442
X218.925Y-100.682
X221.465Y-85.442
X221.465Y-87.983
X221.465Y-90.522
X221.465Y-93.062
X221.465Y-95.602
X221.465Y-98.142
X221.465Y-100.682
T4
X148.59Y-111.76
X148.59Y-130.81
X148.59Y-149.86
X149.86Y-109.22
X149.86Y-128.27
X149.86Y-147.32
X154.94Y-109.22
X154.94Y-128.27
X154.94Y-147.32
X156.21Y-111.76
X156.21Y-130.81
X156.21Y-149.86
X167.59Y-111.76
X167.59Y-130.81
X167.59Y-149.86
X168.86Y-109.22
X168.86Y-128.27
X168.86Y-147.32
X173.94Y-109.22
X173.94Y-128.27
X173.94Y-147.32
X175.21Y-111.76
X175.21Y-130.81
X175.21Y-149.86
X186.59Y-111.76
X186.59Y-130.81
X186.59Y-149.86
X187.86Y-109.22
X187.86Y-128.27
X187.86Y-147.32
X191.34Y-171.285
X192.61Y-168.745
X192.94Y-109.22
X192.94Y-128.27
X192.94Y-147.32
X194.21Y-111.76
X194.21Y-130.81
X194.21Y-149.86
X197.69Y-168.745
X198.96Y-171.285
X205.59Y-111.76
X205.59Y-130.81
X205.59Y-149.86
X206.86Y-109.22
X206.86Y-128.27
X206.86Y-147.32
X210.34Y-171.285
X211.61Y-168.745
X211.94Y-109.22
X211.94Y-128.27
X211.94Y-147.32
X213.21Y-111.76
X213.21Y-130.81
X213.21Y-149.86
X216.69Y-168.745
X217.96Y-171.285
X224.59Y-111.76
X224.59Y-130.81
X224.59Y-149.86
X225.86Y-109.22
X225.86Y-128.27
X225.86Y-147.32
X229.34Y-171.285
X230.61Y-168.745
X230.94Y-109.22
X230.94Y-128.27
X230.94Y-147.32
X232.21Y-111.76
X232.21Y-130.81
X232.21Y-149.86
X235.69Y-168.745
X236.96Y-171.285
T5
X161.875Y-123.825
X161.875Y-142.875
X218.925Y-123.825
X218.925Y-142.875
T0
M30
