M48
; DRILL file {KiCad 7.0.5} date Thu 08 Jun 2023 01:25:08 PM EDT
; FORMAT={-:-/ absolute / metric / decimal}
; #@! TF.CreationDate,2023-06-08T13:25:08-04:00
; #@! TF.GenerationSoftware,Kicad,Pcbnew,7.0.5
; #@! TF.FileFunction,NonPlated,1,2,NPTH
FMAT,2
METRIC
; #@! TA.AperFunction,NonPlated,NPTH,ComponentDrill
T1C1.702
; #@! TA.AperFunction,NonPlated,NPTH,ComponentDrill
T2C3.988
%
G90
G05
T1
X147.32Y-114.3
X147.32Y-133.35
X147.32Y-152.4
X157.48Y-114.3
X157.48Y-133.35
X157.48Y-152.4
X166.32Y-114.3
X166.32Y-133.35
X166.32Y-152.4
X176.48Y-114.3
X176.48Y-133.35
X176.48Y-152.4
X185.32Y-114.3
X185.32Y-133.35
X185.32Y-152.4
X195.48Y-114.3
X195.48Y-133.35
X195.48Y-152.4
X204.32Y-114.3
X204.32Y-133.35
X204.32Y-152.4
X204.32Y-176.213
X214.48Y-114.3
X214.48Y-133.35
X214.48Y-152.4
X214.48Y-176.213
X223.32Y-114.3
X223.32Y-133.35
X223.32Y-152.4
X223.32Y-176.213
X233.48Y-114.3
X233.48Y-133.35
X233.48Y-152.4
X233.48Y-176.213
X242.32Y-176.213
X252.48Y-176.213
T2
X152.4Y-114.3
X152.4Y-133.35
X152.4Y-152.4
X171.4Y-114.3
X171.4Y-133.35
X171.4Y-152.4
X190.4Y-114.3
X190.4Y-133.35
X190.4Y-152.4
X209.4Y-114.3
X209.4Y-133.35
X209.4Y-152.4
X209.4Y-176.213
X228.4Y-114.3
X228.4Y-133.35
X228.4Y-152.4
X228.4Y-176.213
X247.4Y-176.213
T0
M30
