%TF.GenerationSoftware,KiCad,Pcbnew,7.0.5*%
%TF.CreationDate,2023-06-09T13:05:55-04:00*%
%TF.ProjectId,atma,61746d61-2e6b-4696-9361-645f70636258,v1.0.0*%
%TF.SameCoordinates,Original*%
%TF.FileFunction,Soldermask,Top*%
%TF.FilePolarity,Negative*%
%FSLAX46Y46*%
G04 Gerber Fmt 4.6, Leading zero omitted, Abs format (unit mm)*
G04 Created by KiCad (PCBNEW 7.0.5) date 2023-06-09 13:05:55*
%MOMM*%
%LPD*%
G01*
G04 APERTURE LIST*
G04 Aperture macros list*
%AMRoundRect*
0 Rectangle with rounded corners*
0 $1 Rounding radius*
0 $2 $3 $4 $5 $6 $7 $8 $9 X,Y pos of 4 corners*
0 Add a 4 corners polygon primitive as box body*
4,1,4,$2,$3,$4,$5,$6,$7,$8,$9,$2,$3,0*
0 Add four circle primitives for the rounded corners*
1,1,$1+$1,$2,$3*
1,1,$1+$1,$4,$5*
1,1,$1+$1,$6,$7*
1,1,$1+$1,$8,$9*
0 Add four rect primitives between the rounded corners*
20,1,$1+$1,$2,$3,$4,$5,0*
20,1,$1+$1,$4,$5,$6,$7,0*
20,1,$1+$1,$6,$7,$8,$9,0*
20,1,$1+$1,$8,$9,$2,$3,0*%
G04 Aperture macros list end*
%ADD10C,1.801800*%
%ADD11C,4.087800*%
%ADD12C,2.386000*%
%ADD13C,0.800000*%
%ADD14C,4.500000*%
%ADD15RoundRect,0.050000X0.320000X1.270000X-0.320000X1.270000X-0.320000X-1.270000X0.320000X-1.270000X0*%
%ADD16RoundRect,0.050000X1.270000X2.605000X-1.270000X2.605000X-1.270000X-2.605000X1.270000X-2.605000X0*%
%ADD17O,1.600000X2.600000*%
%ADD18O,2.600000X1.600000*%
G04 APERTURE END LIST*
D10*
%TO.C,S14*%
X223320000Y-133350000D03*
D11*
X228400000Y-133350000D03*
D10*
X233480000Y-133350000D03*
D12*
X225860000Y-128270000D03*
X230940000Y-128270000D03*
X224590000Y-130810000D03*
X232210000Y-130810000D03*
%TD*%
D10*
%TO.C,S16*%
X204320000Y-176212500D03*
D11*
X209400000Y-176212500D03*
D10*
X214480000Y-176212500D03*
D12*
X206860000Y-171132500D03*
X211940000Y-171132500D03*
X205590000Y-173672500D03*
X213210000Y-173672500D03*
%TD*%
D13*
%TO.C,_4*%
X198275000Y-123825000D03*
X198758274Y-122658274D03*
X198758274Y-124991726D03*
X199925000Y-122175000D03*
D14*
X199925000Y-123825000D03*
D13*
X199925000Y-125475000D03*
X201091726Y-122658274D03*
X201091726Y-124991726D03*
X201575000Y-123825000D03*
%TD*%
D10*
%TO.C,S5*%
X166320000Y-133350000D03*
D11*
X171400000Y-133350000D03*
D10*
X176480000Y-133350000D03*
D12*
X168860000Y-128270000D03*
X173940000Y-128270000D03*
X167590000Y-130810000D03*
X175210000Y-130810000D03*
%TD*%
D10*
%TO.C,S1*%
X147320000Y-152400000D03*
D11*
X152400000Y-152400000D03*
D10*
X157480000Y-152400000D03*
D12*
X149860000Y-147320000D03*
X154940000Y-147320000D03*
X148590000Y-149860000D03*
X156210000Y-149860000D03*
%TD*%
D10*
%TO.C,S13*%
X223320000Y-152400000D03*
D11*
X228400000Y-152400000D03*
D10*
X233480000Y-152400000D03*
D12*
X225860000Y-147320000D03*
X230940000Y-147320000D03*
X224590000Y-149860000D03*
X232210000Y-149860000D03*
%TD*%
D10*
%TO.C,S10*%
X204320000Y-152400000D03*
D11*
X209400000Y-152400000D03*
D10*
X214480000Y-152400000D03*
D12*
X206860000Y-147320000D03*
X211940000Y-147320000D03*
X205590000Y-149860000D03*
X213210000Y-149860000D03*
%TD*%
D13*
%TO.C,_5*%
X236275000Y-166687500D03*
X236758274Y-165520774D03*
X236758274Y-167854226D03*
X237925000Y-165037500D03*
D14*
X237925000Y-166687500D03*
D13*
X237925000Y-168337500D03*
X239091726Y-165520774D03*
X239091726Y-167854226D03*
X239575000Y-166687500D03*
%TD*%
D15*
%TO.C,*%
X250942500Y-122559500D03*
X249672500Y-122559500D03*
X248402500Y-122559500D03*
X247132500Y-122559500D03*
X245862500Y-122559500D03*
X244592500Y-122559500D03*
X243322500Y-122559500D03*
X242052500Y-122559500D03*
D16*
X252847500Y-110784500D03*
X240147500Y-110784500D03*
%TD*%
D17*
%TO.C,*%
X144145000Y-164282500D03*
X146685000Y-164282500D03*
X149225000Y-164282500D03*
X151765000Y-164282500D03*
X154305000Y-164282500D03*
X156845000Y-164282500D03*
X159385000Y-164282500D03*
X161925000Y-164282500D03*
X164465000Y-164282500D03*
D18*
X164965000Y-167322500D03*
X164965000Y-169862500D03*
X164965000Y-172402500D03*
X164965000Y-174942500D03*
X164965000Y-177482500D03*
D17*
X164465000Y-180522500D03*
X161925000Y-180522500D03*
X159385000Y-180522500D03*
X156845000Y-180522500D03*
X154305000Y-180522500D03*
X151765000Y-180522500D03*
X149225000Y-180522500D03*
X146685000Y-180522500D03*
X144145000Y-180522500D03*
%TD*%
D10*
%TO.C,S18*%
X242316000Y-178460400D03*
D11*
X247396000Y-178460400D03*
D10*
X252476000Y-178460400D03*
D12*
X244856000Y-173380400D03*
X249936000Y-173380400D03*
X243586000Y-175920400D03*
X251206000Y-175920400D03*
%TD*%
D10*
%TO.C,S2*%
X147320000Y-133350000D03*
D11*
X152400000Y-133350000D03*
D10*
X157480000Y-133350000D03*
D12*
X149860000Y-128270000D03*
X154940000Y-128270000D03*
X148590000Y-130810000D03*
X156210000Y-130810000D03*
%TD*%
D10*
%TO.C,S17*%
X223320000Y-176212500D03*
D11*
X228400000Y-176212500D03*
D10*
X233480000Y-176212500D03*
D12*
X225860000Y-171132500D03*
X230940000Y-171132500D03*
X224590000Y-173672500D03*
X232210000Y-173672500D03*
%TD*%
D10*
%TO.C,S11*%
X204320000Y-133350000D03*
D11*
X209400000Y-133350000D03*
D10*
X214480000Y-133350000D03*
D12*
X206860000Y-128270000D03*
X211940000Y-128270000D03*
X205590000Y-130810000D03*
X213210000Y-130810000D03*
%TD*%
D13*
%TO.C,_3*%
X160275000Y-142875000D03*
X160758274Y-141708274D03*
X160758274Y-144041726D03*
X161925000Y-141225000D03*
D14*
X161925000Y-142875000D03*
D13*
X161925000Y-144525000D03*
X163091726Y-141708274D03*
X163091726Y-144041726D03*
X163575000Y-142875000D03*
%TD*%
D10*
%TO.C,S9*%
X185320000Y-114300000D03*
D11*
X190400000Y-114300000D03*
D10*
X195480000Y-114300000D03*
D12*
X187860000Y-109220000D03*
X192940000Y-109220000D03*
X186590000Y-111760000D03*
X194210000Y-111760000D03*
%TD*%
D10*
%TO.C,S6*%
X166320000Y-114300000D03*
D11*
X171400000Y-114300000D03*
D10*
X176480000Y-114300000D03*
D12*
X168860000Y-109220000D03*
X173940000Y-109220000D03*
X167590000Y-111760000D03*
X175210000Y-111760000D03*
%TD*%
D10*
%TO.C,S8*%
X185320000Y-133350000D03*
D11*
X190400000Y-133350000D03*
D10*
X195480000Y-133350000D03*
D12*
X187860000Y-128270000D03*
X192940000Y-128270000D03*
X186590000Y-130810000D03*
X194210000Y-130810000D03*
%TD*%
D10*
%TO.C,S15*%
X223320000Y-114300000D03*
D11*
X228400000Y-114300000D03*
D10*
X233480000Y-114300000D03*
D12*
X225860000Y-109220000D03*
X230940000Y-109220000D03*
X224590000Y-111760000D03*
X232210000Y-111760000D03*
%TD*%
D10*
%TO.C,S4*%
X166320000Y-152400000D03*
D11*
X171400000Y-152400000D03*
D10*
X176480000Y-152400000D03*
D12*
X168860000Y-147320000D03*
X173940000Y-147320000D03*
X167590000Y-149860000D03*
X175210000Y-149860000D03*
%TD*%
D10*
%TO.C,S7*%
X185320000Y-152400000D03*
D11*
X190400000Y-152400000D03*
D10*
X195480000Y-152400000D03*
D12*
X187860000Y-147320000D03*
X192940000Y-147320000D03*
X186590000Y-149860000D03*
X194210000Y-149860000D03*
%TD*%
D10*
%TO.C,S3*%
X147320000Y-114300000D03*
D11*
X152400000Y-114300000D03*
D10*
X157480000Y-114300000D03*
D12*
X149860000Y-109220000D03*
X154940000Y-109220000D03*
X148590000Y-111760000D03*
X156210000Y-111760000D03*
%TD*%
D10*
%TO.C,S12*%
X204320000Y-114300000D03*
D11*
X209400000Y-114300000D03*
D10*
X214480000Y-114300000D03*
D12*
X206860000Y-109220000D03*
X211940000Y-109220000D03*
X205590000Y-111760000D03*
X213210000Y-111760000D03*
%TD*%
M02*
