M48
; DRILL file {KiCad 7.0.5} date Thu 08 Jun 2023 01:25:08 PM EDT
; FORMAT={-:-/ absolute / metric / decimal}
; #@! TF.CreationDate,2023-06-08T13:25:08-04:00
; #@! TF.GenerationSoftware,Kicad,Pcbnew,7.0.5
; #@! TF.FileFunction,Plated,1,2,PTH
FMAT,2
METRIC
; #@! TA.AperFunction,Plated,PTH,ViaDrill
T1C0.400
; #@! TA.AperFunction,Plated,PTH,ComponentDrill
T2C0.400
; #@! TA.AperFunction,Plated,PTH,ComponentDrill
T3C1.000
; #@! TA.AperFunction,Plated,PTH,ComponentDrill
T4C1.499
; #@! TA.AperFunction,Plated,PTH,ComponentDrill
T5C2.200
%
G90
G05
T1
X152.146Y-183.032
X154.229Y-172.415
X239.065Y-122.53
X245.262Y-120.294
X246.431Y-128.473
X247.701Y-120.244
X253.949Y-122.53
T2
X160.275Y-142.875
X160.758Y-141.708
X160.758Y-144.042
X161.925Y-141.225
X161.925Y-144.525
X163.092Y-141.708
X163.092Y-144.042
X163.575Y-142.875
X198.275Y-123.825
X198.758Y-122.658
X198.758Y-124.992
X199.925Y-122.175
X199.925Y-125.475
X201.092Y-122.658
X201.092Y-124.992
X201.575Y-123.825
X236.275Y-166.688
X236.758Y-165.521
X236.758Y-167.854
X237.925Y-165.037
X237.925Y-168.338
X239.092Y-165.521
X239.092Y-167.854
X239.575Y-166.688
T3
X144.145Y-164.782
X144.145Y-180.022
X146.685Y-164.782
X146.685Y-180.022
X149.225Y-164.782
X149.225Y-180.022
X151.765Y-164.782
X151.765Y-180.022
X154.305Y-164.782
X154.305Y-180.022
X156.845Y-164.782
X156.845Y-180.022
X159.385Y-164.782
X159.385Y-180.022
X161.925Y-164.782
X161.925Y-180.022
X164.465Y-164.782
X164.465Y-167.322
X164.465Y-169.862
X164.465Y-172.403
X164.465Y-174.942
X164.465Y-177.482
X164.465Y-180.022
T4
X148.59Y-111.76
X148.59Y-130.81
X148.59Y-149.86
X149.86Y-109.22
X149.86Y-128.27
X149.86Y-147.32
X154.94Y-109.22
X154.94Y-128.27
X154.94Y-147.32
X156.21Y-111.76
X156.21Y-130.81
X156.21Y-149.86
X167.59Y-111.76
X167.59Y-130.81
X167.59Y-149.86
X168.86Y-109.22
X168.86Y-128.27
X168.86Y-147.32
X173.94Y-109.22
X173.94Y-128.27
X173.94Y-147.32
X175.21Y-111.76
X175.21Y-130.81
X175.21Y-149.86
X186.59Y-111.76
X186.59Y-130.81
X186.59Y-149.86
X187.86Y-109.22
X187.86Y-128.27
X187.86Y-147.32
X192.94Y-109.22
X192.94Y-128.27
X192.94Y-147.32
X194.21Y-111.76
X194.21Y-130.81
X194.21Y-149.86
X205.59Y-111.76
X205.59Y-130.81
X205.59Y-149.86
X205.59Y-173.672
X206.86Y-109.22
X206.86Y-128.27
X206.86Y-147.32
X206.86Y-171.132
X211.94Y-109.22
X211.94Y-128.27
X211.94Y-147.32
X211.94Y-171.132
X213.21Y-111.76
X213.21Y-130.81
X213.21Y-149.86
X213.21Y-173.672
X224.59Y-111.76
X224.59Y-130.81
X224.59Y-149.86
X224.59Y-173.672
X225.86Y-109.22
X225.86Y-128.27
X225.86Y-147.32
X225.86Y-171.132
X230.94Y-109.22
X230.94Y-128.27
X230.94Y-147.32
X230.94Y-171.132
X232.21Y-111.76
X232.21Y-130.81
X232.21Y-149.86
X232.21Y-173.672
X243.59Y-173.672
X244.86Y-171.132
X249.94Y-171.132
X251.21Y-173.672
T5
X161.925Y-142.875
X199.925Y-123.825
X237.925Y-166.688
T0
M30
