0
SECTION
2
HEADER
9
$INSUNITS
70
4
0
ENDSEC
0
SECTION
2
TABLES
0
TABLE
2
LTYPE
0
LTYPE
72
65
70
64
2
CONTINUOUS
3
______
73
0
40
0
0
ENDTAB
0
TABLE
2
LAYER
0
ENDTAB
0
ENDSEC
0
SECTION
2
ENTITIES
0
LINE
8
0
10
142.875
20
-186.16625
11
142.875
21
-179.855
0
LINE
8
0
10
142.875
20
-166.855
11
142.875
21
-105.775
0
LINE
8
0
10
143.875
20
-104.775
11
238.125
21
-104.775
0
LINE
8
0
10
257.175
20
-123.825
11
257.175
21
-186.16625
0
LINE
8
0
10
256.175
20
-187.16625
11
143.875
21
-187.16625
0
ARC
8
0
10
143.875
20
-105.775
40
1
50
90
51
180
0
ARC
8
0
10
256.175
20
-186.16625
40
1
50
270
51
0
0
ARC
8
0
10
143.875
20
-186.16625
40
1
50
180
51
270
0
LINE
8
0
10
142.875
20
-179.855
11
163.4
21
-179.855
0
LINE
8
0
10
163.4
20
-179.855
11
163.4
21
-166.855
0
LINE
8
0
10
163.4
20
-166.855
11
142.875
21
-166.855
0
LINE
8
0
10
145.4
20
-159.4
11
159.4
21
-159.4
0
LINE
8
0
10
159.4
20
-159.4
11
159.4
21
-145.4
0
LINE
8
0
10
159.4
20
-145.4
11
145.4
21
-145.4
0
LINE
8
0
10
145.4
20
-145.4
11
145.4
21
-159.4
0
LINE
8
0
10
145.4
20
-140.35
11
159.4
21
-140.35
0
LINE
8
0
10
159.4
20
-140.35
11
159.4
21
-126.35
0
LINE
8
0
10
159.4
20
-126.35
11
145.4
21
-126.35
0
LINE
8
0
10
145.4
20
-126.35
11
145.4
21
-140.35
0
LINE
8
0
10
145.4
20
-121.3
11
159.4
21
-121.3
0
LINE
8
0
10
159.4
20
-121.3
11
159.4
21
-107.3
0
LINE
8
0
10
159.4
20
-107.3
11
145.4
21
-107.3
0
LINE
8
0
10
145.4
20
-107.3
11
145.4
21
-121.3
0
LINE
8
0
10
164.45
20
-159.4
11
178.45
21
-159.4
0
LINE
8
0
10
178.45
20
-159.4
11
178.45
21
-145.4
0
LINE
8
0
10
178.45
20
-145.4
11
164.45
21
-145.4
0
LINE
8
0
10
164.45
20
-145.4
11
164.45
21
-159.4
0
LINE
8
0
10
164.45
20
-140.35
11
178.45
21
-140.35
0
LINE
8
0
10
178.45
20
-140.35
11
178.45
21
-126.35
0
LINE
8
0
10
178.45
20
-126.35
11
164.45
21
-126.35
0
LINE
8
0
10
164.45
20
-126.35
11
164.45
21
-140.35
0
LINE
8
0
10
164.45
20
-121.3
11
178.45
21
-121.3
0
LINE
8
0
10
178.45
20
-121.3
11
178.45
21
-107.3
0
LINE
8
0
10
178.45
20
-107.3
11
164.45
21
-107.3
0
LINE
8
0
10
164.45
20
-107.3
11
164.45
21
-121.3
0
LINE
8
0
10
183.5
20
-159.4
11
197.5
21
-159.4
0
LINE
8
0
10
197.5
20
-159.4
11
197.5
21
-145.4
0
LINE
8
0
10
197.5
20
-145.4
11
183.5
21
-145.4
0
LINE
8
0
10
183.5
20
-145.4
11
183.5
21
-159.4
0
LINE
8
0
10
183.5
20
-140.35
11
197.5
21
-140.35
0
LINE
8
0
10
197.5
20
-140.35
11
197.5
21
-126.35
0
LINE
8
0
10
197.5
20
-126.35
11
183.5
21
-126.35
0
LINE
8
0
10
183.5
20
-126.35
11
183.5
21
-140.35
0
LINE
8
0
10
183.5
20
-121.3
11
197.5
21
-121.3
0
LINE
8
0
10
197.5
20
-121.3
11
197.5
21
-107.3
0
LINE
8
0
10
197.5
20
-107.3
11
183.5
21
-107.3
0
LINE
8
0
10
183.5
20
-107.3
11
183.5
21
-121.3
0
LINE
8
0
10
202.55
20
-159.4
11
216.55
21
-159.4
0
LINE
8
0
10
216.55
20
-159.4
11
216.55
21
-145.4
0
LINE
8
0
10
216.55
20
-145.4
11
202.55
21
-145.4
0
LINE
8
0
10
202.55
20
-145.4
11
202.55
21
-159.4
0
LINE
8
0
10
202.55
20
-140.35
11
216.55
21
-140.35
0
LINE
8
0
10
216.55
20
-140.35
11
216.55
21
-126.35
0
LINE
8
0
10
216.55
20
-126.35
11
202.55
21
-126.35
0
LINE
8
0
10
202.55
20
-126.35
11
202.55
21
-140.35
0
LINE
8
0
10
202.55
20
-121.3
11
216.55
21
-121.3
0
LINE
8
0
10
216.55
20
-121.3
11
216.55
21
-107.3
0
LINE
8
0
10
216.55
20
-107.3
11
202.55
21
-107.3
0
LINE
8
0
10
202.55
20
-107.3
11
202.55
21
-121.3
0
LINE
8
0
10
221.6
20
-159.4
11
235.6
21
-159.4
0
LINE
8
0
10
235.6
20
-159.4
11
235.6
21
-145.4
0
LINE
8
0
10
235.6
20
-145.4
11
221.6
21
-145.4
0
LINE
8
0
10
221.6
20
-145.4
11
221.6
21
-159.4
0
LINE
8
0
10
221.6
20
-140.35
11
235.6
21
-140.35
0
LINE
8
0
10
235.6
20
-140.35
11
235.6
21
-126.35
0
LINE
8
0
10
235.6
20
-126.35
11
221.6
21
-126.35
0
LINE
8
0
10
221.6
20
-126.35
11
221.6
21
-140.35
0
LINE
8
0
10
221.6
20
-121.3
11
235.6
21
-121.3
0
LINE
8
0
10
235.6
20
-121.3
11
235.6
21
-107.3
0
LINE
8
0
10
235.6
20
-107.3
11
221.6
21
-107.3
0
LINE
8
0
10
221.6
20
-107.3
11
221.6
21
-121.3
0
LINE
8
0
10
202.55
20
-182.26
11
216.55
21
-182.26
0
LINE
8
0
10
216.55
20
-182.26
11
216.55
21
-168.26
0
LINE
8
0
10
216.55
20
-168.26
11
202.55
21
-168.26
0
LINE
8
0
10
202.55
20
-168.26
11
202.55
21
-182.26
0
LINE
8
0
10
221.6
20
-182.26
11
235.6
21
-182.26
0
LINE
8
0
10
235.6
20
-182.26
11
235.6
21
-168.26
0
LINE
8
0
10
235.6
20
-168.26
11
221.6
21
-168.26
0
LINE
8
0
10
221.6
20
-168.26
11
221.6
21
-182.26
0
LINE
8
0
10
240.65
20
-184.64125
11
254.65
21
-184.64125
0
LINE
8
0
10
254.65
20
-184.64125
11
254.65
21
-170.64125
0
LINE
8
0
10
254.65
20
-170.64125
11
240.65
21
-170.64125
0
LINE
8
0
10
240.65
20
-170.64125
11
240.65
21
-184.64125
0
LINE
8
0
10
238.125
20
-104.775
11
238.125
21
-122.825
0
LINE
8
0
10
239.125
20
-123.825
11
257.175
21
-123.825
0
ARC
8
0
10
239.125
20
-122.825
40
1
50
180
51
270
0
ENDSEC
0
EOF