0
SECTION
2
HEADER
9
$INSUNITS
70
4
0
ENDSEC
0
SECTION
2
TABLES
0
TABLE
2
LTYPE
0
LTYPE
72
65
70
64
2
CONTINUOUS
3
______
73
0
40
0
0
ENDTAB
0
TABLE
2
LAYER
0
ENDTAB
0
ENDSEC
0
SECTION
2
ENTITIES
0
LINE
8
0
10
148.9
20
-159.9
11
155.9
21
-159.9
0
LINE
8
0
10
155.9
20
-159.9
11
155.9
21
-144.9
0
LINE
8
0
10
155.9
20
-144.9
11
148.9
21
-144.9
0
LINE
8
0
10
148.9
20
-144.9
11
148.9
21
-159.9
0
LINE
8
0
10
148.9
20
-140.85
11
155.9
21
-140.85
0
LINE
8
0
10
155.9
20
-140.85
11
155.9
21
-125.85
0
LINE
8
0
10
155.9
20
-125.85
11
148.9
21
-125.85
0
LINE
8
0
10
148.9
20
-125.85
11
148.9
21
-140.85
0
LINE
8
0
10
148.9
20
-121.8
11
155.9
21
-121.8
0
LINE
8
0
10
155.9
20
-121.8
11
155.9
21
-106.8
0
LINE
8
0
10
155.9
20
-106.8
11
148.9
21
-106.8
0
LINE
8
0
10
148.9
20
-106.8
11
148.9
21
-121.8
0
LINE
8
0
10
167.95
20
-159.9
11
174.95
21
-159.9
0
LINE
8
0
10
174.95
20
-159.9
11
174.95
21
-144.9
0
LINE
8
0
10
174.95
20
-144.9
11
167.95
21
-144.9
0
LINE
8
0
10
167.95
20
-144.9
11
167.95
21
-159.9
0
LINE
8
0
10
167.95
20
-140.85
11
174.95
21
-140.85
0
LINE
8
0
10
174.95
20
-140.85
11
174.95
21
-125.85
0
LINE
8
0
10
174.95
20
-125.85
11
167.95
21
-125.85
0
LINE
8
0
10
167.95
20
-125.85
11
167.95
21
-140.85
0
LINE
8
0
10
167.95
20
-121.8
11
174.95
21
-121.8
0
LINE
8
0
10
174.95
20
-121.8
11
174.95
21
-106.8
0
LINE
8
0
10
174.95
20
-106.8
11
167.95
21
-106.8
0
LINE
8
0
10
167.95
20
-106.8
11
167.95
21
-121.8
0
LINE
8
0
10
187
20
-159.9
11
194
21
-159.9
0
LINE
8
0
10
194
20
-159.9
11
194
21
-144.9
0
LINE
8
0
10
194
20
-144.9
11
187
21
-144.9
0
LINE
8
0
10
187
20
-144.9
11
187
21
-159.9
0
LINE
8
0
10
187
20
-140.85
11
194
21
-140.85
0
LINE
8
0
10
194
20
-140.85
11
194
21
-125.85
0
LINE
8
0
10
194
20
-125.85
11
187
21
-125.85
0
LINE
8
0
10
187
20
-125.85
11
187
21
-140.85
0
LINE
8
0
10
187
20
-121.8
11
194
21
-121.8
0
LINE
8
0
10
194
20
-121.8
11
194
21
-106.8
0
LINE
8
0
10
194
20
-106.8
11
187
21
-106.8
0
LINE
8
0
10
187
20
-106.8
11
187
21
-121.8
0
LINE
8
0
10
206.05
20
-159.9
11
213.05
21
-159.9
0
LINE
8
0
10
213.05
20
-159.9
11
213.05
21
-144.9
0
LINE
8
0
10
213.05
20
-144.9
11
206.05
21
-144.9
0
LINE
8
0
10
206.05
20
-144.9
11
206.05
21
-159.9
0
LINE
8
0
10
206.05
20
-140.85
11
213.05
21
-140.85
0
LINE
8
0
10
213.05
20
-140.85
11
213.05
21
-125.85
0
LINE
8
0
10
213.05
20
-125.85
11
206.05
21
-125.85
0
LINE
8
0
10
206.05
20
-125.85
11
206.05
21
-140.85
0
LINE
8
0
10
206.05
20
-121.8
11
213.05
21
-121.8
0
LINE
8
0
10
213.05
20
-121.8
11
213.05
21
-106.8
0
LINE
8
0
10
213.05
20
-106.8
11
206.05
21
-106.8
0
LINE
8
0
10
206.05
20
-106.8
11
206.05
21
-121.8
0
LINE
8
0
10
225.1
20
-159.9
11
232.1
21
-159.9
0
LINE
8
0
10
232.1
20
-159.9
11
232.1
21
-144.9
0
LINE
8
0
10
232.1
20
-144.9
11
225.1
21
-144.9
0
LINE
8
0
10
225.1
20
-144.9
11
225.1
21
-159.9
0
LINE
8
0
10
225.1
20
-140.85
11
232.1
21
-140.85
0
LINE
8
0
10
232.1
20
-140.85
11
232.1
21
-125.85
0
LINE
8
0
10
232.1
20
-125.85
11
225.1
21
-125.85
0
LINE
8
0
10
225.1
20
-125.85
11
225.1
21
-140.85
0
LINE
8
0
10
225.1
20
-121.8
11
232.1
21
-121.8
0
LINE
8
0
10
232.1
20
-121.8
11
232.1
21
-106.8
0
LINE
8
0
10
232.1
20
-106.8
11
225.1
21
-106.8
0
LINE
8
0
10
225.1
20
-106.8
11
225.1
21
-121.8
0
LINE
8
0
10
206.05
20
-182.76
11
213.05
21
-182.76
0
LINE
8
0
10
213.05
20
-182.76
11
213.05
21
-167.76
0
LINE
8
0
10
213.05
20
-167.76
11
206.05
21
-167.76
0
LINE
8
0
10
206.05
20
-167.76
11
206.05
21
-182.76
0
LINE
8
0
10
225.1
20
-182.76
11
232.1
21
-182.76
0
LINE
8
0
10
232.1
20
-182.76
11
232.1
21
-167.76
0
LINE
8
0
10
232.1
20
-167.76
11
225.1
21
-167.76
0
LINE
8
0
10
225.1
20
-167.76
11
225.1
21
-182.76
0
LINE
8
0
10
244.15
20
-185.14125
11
251.15
21
-185.14125
0
LINE
8
0
10
251.15
20
-185.14125
11
251.15
21
-170.14125
0
LINE
8
0
10
251.15
20
-170.14125
11
244.15
21
-170.14125
0
LINE
8
0
10
244.15
20
-170.14125
11
244.15
21
-185.14125
0
ENDSEC
0
EOF